<svg width="500" height="500" viewBox="0 0 500 500" fill="none" xmlns="http://www.w3.org/2000/svg">
<rect width="500" height="500" rx="250" fill="white"/>
<g filter="url(#filter0_i_933_148)">
<path d="M351.99 227.647L220.388 239.462C186.925 242.468 158.067 216.48 158.067 183.336V137.098C158.067 132.805 161.393 129.21 165.728 128.82L350.458 112.231C355.391 111.791 359.643 115.618 359.643 120.509V219.378C359.643 223.67 356.317 227.265 351.982 227.656L351.99 227.647Z" fill="#0095C3"/>
</g>
<g filter="url(#filter1_i_933_148)">
<path d="M150.419 271.543L282.021 259.728C315.484 256.723 344.342 282.71 344.342 315.855L344.342 362.093C344.342 366.385 341.017 369.981 336.681 370.371L151.951 386.96C147.018 387.4 142.767 383.572 142.767 378.682L142.767 279.813C142.767 275.52 146.092 271.925 150.427 271.535L150.419 271.543Z" fill="#0095C3"/>
</g>
<path d="M352.348 227.647L220.745 239.462C187.283 242.468 158.425 216.48 158.425 183.336V137.098C158.425 132.805 161.75 129.21 166.085 128.82L350.816 112.231C355.749 111.791 360 115.618 360 120.509V219.378C360 223.67 356.683 227.257 352.348 227.647Z" fill="#0095C3" stroke="#0094C3" stroke-width="9"/>
<path d="M333.923 371.181L149.184 387.769C144.251 388.21 140 384.382 140 379.492V280.622C140 276.33 143.325 272.735 147.661 272.345L279.263 260.53C312.726 257.524 341.584 283.512 341.584 316.656V362.903C341.584 367.195 338.258 370.79 333.923 371.181Z" fill="#0095C3" stroke="#0094C3" stroke-width="9"/>
<defs>
<filter id="filter0_i_933_148" x="148.233" y="112.196" width="211.409" height="138.742" filterUnits="userSpaceOnUse" color-interpolation-filters="sRGB">
<feFlood flood-opacity="0" result="BackgroundImageFix"/>
<feBlend mode="normal" in="SourceGraphic" in2="BackgroundImageFix" result="shape"/>
<feColorMatrix in="SourceAlpha" type="matrix" values="0 0 0 0 0 0 0 0 0 0 0 0 0 0 0 0 0 0 127 0" result="hardAlpha"/>
<feOffset dx="-9.83414" dy="11.239"/>
<feGaussianBlur stdDeviation="7.02438"/>
<feComposite in2="hardAlpha" operator="arithmetic" k2="-1" k3="1"/>
<feColorMatrix type="matrix" values="0 0 0 0 0.121569 0 0 0 0 0.823529 0 0 0 0 0.945098 0 0 0 0.35 0"/>
<feBlend mode="normal" in2="shape" result="effect1_innerShadow_933_148"/>
</filter>
<filter id="filter1_i_933_148" x="132.932" y="259.491" width="211.409" height="138.742" filterUnits="userSpaceOnUse" color-interpolation-filters="sRGB">
<feFlood flood-opacity="0" result="BackgroundImageFix"/>
<feBlend mode="normal" in="SourceGraphic" in2="BackgroundImageFix" result="shape"/>
<feColorMatrix in="SourceAlpha" type="matrix" values="0 0 0 0 0 0 0 0 0 0 0 0 0 0 0 0 0 0 127 0" result="hardAlpha"/>
<feOffset dx="-9.83414" dy="11.239"/>
<feGaussianBlur stdDeviation="7.02438"/>
<feComposite in2="hardAlpha" operator="arithmetic" k2="-1" k3="1"/>
<feColorMatrix type="matrix" values="0 0 0 0 0.121569 0 0 0 0 0.823529 0 0 0 0 0.945098 0 0 0 0.35 0"/>
<feBlend mode="normal" in2="shape" result="effect1_innerShadow_933_148"/>
</filter>
</defs>
</svg>
